<?xml version="1.0" encoding="UTF-8"?>
<svg xmlns="http://www.w3.org/2000/svg" xmlns:xlink="http://www.w3.org/1999/xlink" width="32px" height="32px" viewBox="0 0 32 32" version="1.1">
<g id="surface1">
<path style=" stroke:none;fill-rule:nonzero;fill:rgb(0%,76.862746%,41.176471%);fill-opacity:1;" d="M 6.164062 15.402344 C 6.265625 18.171875 7.179688 21.28125 9.4375 23.421875 C 9.4375 23.421875 14.277344 25.410156 17.59375 22.636719 C 18.660156 21.742188 19.15625 20.242188 19.097656 18.851562 C 19.039062 17.457031 18.035156 16.101562 16.582031 15.847656 C 16.582031 15.847656 17.710938 16.699219 17.265625 18.710938 C 17.011719 19.871094 14.800781 21.839844 11.265625 20.789062 C 7.851562 19.773438 6.164062 15.402344 6.164062 15.402344 "/>
<path style=" stroke:none;fill-rule:nonzero;fill:rgb(0%,76.862746%,41.176471%);fill-opacity:1;" d="M 13.671875 0 C 10.628906 0.453125 7.863281 1.765625 5.628906 3.675781 C 2.449219 6.398438 1.265625 10.777344 2.492188 14.78125 C 3.316406 17.472656 4.765625 19.695312 6.765625 21.28125 C 4.460938 16.519531 5.121094 10.378906 8.464844 6.207031 C 10.15625 4.097656 12.511719 2.371094 13.671875 0 "/>
<path style=" stroke:none;fill-rule:nonzero;fill:rgb(0%,76.862746%,41.176471%);fill-opacity:1;" d="M 12.539062 25.152344 C 15.207031 25.914062 18.441406 26.003906 21.175781 24.515625 C 21.175781 24.515625 24.5625 20.527344 22.949219 16.515625 C 22.429688 15.222656 21.15625 14.285156 19.816406 13.914062 C 18.472656 13.539062 16.871094 14.074219 16.183594 15.378906 C 16.183594 15.378906 17.339844 14.566406 19.117188 15.613281 C 20.140625 16.214844 21.332031 18.925781 19.238281 21.964844 C 17.214844 24.898438 12.539062 25.152344 12.539062 25.152344 "/>
<path style=" stroke:none;fill-rule:nonzero;fill:rgb(0%,76.862746%,41.176471%);fill-opacity:1;" d="M 0.21875 13.25 C -0.269531 16.167969 0.0703125 19.082031 1.097656 21.714844 C 2.710938 25.847656 6.71875 28.476562 11.152344 28.457031 C 13.835938 28.449219 16.277344 27.753906 18.3125 26.398438 C 13.078125 27.121094 7.441406 24.59375 4.511719 20.125 C 3.027344 17.863281 2.113281 15.085938 0.21875 13.25 "/>
<path style=" stroke:none;fill-rule:nonzero;fill:rgb(0%,76.862746%,41.176471%);fill-opacity:1;" d="M 23.78125 22.101562 C 25.328125 19.796875 26.414062 16.746094 25.84375 13.6875 C 25.84375 13.6875 23.097656 9.234375 18.785156 9.527344 C 17.394531 9.621094 16.113281 10.542969 15.34375 11.703125 C 14.574219 12.867188 14.585938 14.554688 15.617188 15.613281 C 15.617188 15.613281 15.199219 14.261719 16.742188 12.894531 C 17.632812 12.105469 20.578125 11.8125 22.816406 14.742188 C 24.984375 17.570312 23.78125 22.101562 23.78125 22.101562 "/>
<path style=" stroke:none;fill-rule:nonzero;fill:rgb(0%,76.862746%,41.176471%);fill-opacity:1;" d="M 8.660156 30.144531 C 11.390625 31.566406 14.394531 32.132812 17.324219 31.898438 C 21.496094 31.566406 25.027344 28.722656 26.386719 24.761719 C 27.304688 22.101562 27.4375 19.449219 26.75 16.992188 C 25.816406 22.195312 21.675781 26.777344 16.519531 28.1875 C 13.910156 28.898438 10.988281 28.910156 8.660156 30.144531 "/>
<path style=" stroke:none;fill-rule:nonzero;fill:rgb(0%,76.862746%,41.176471%);fill-opacity:1;" d="M 24.351562 10.460938 C 22.640625 8.28125 20.074219 6.304688 16.992188 5.898438 C 16.992188 5.898438 11.910156 7.136719 10.855469 11.328125 C 10.515625 12.679688 10.996094 14.183594 11.863281 15.277344 C 12.730469 16.367188 14.339844 16.875 15.664062 16.226562 C 15.664062 16.226562 14.25 16.203125 13.425781 14.3125 C 12.953125 13.222656 13.582031 10.332031 17.058594 9.101562 C 20.417969 7.917969 24.351562 10.460938 24.351562 10.460938 "/>
<path style=" stroke:none;fill-rule:nonzero;fill:rgb(0%,76.862746%,41.176471%);fill-opacity:1;" d="M 27.328125 27.335938 C 29.523438 25.179688 30.992188 22.492188 31.671875 19.632812 C 32.644531 15.558594 31.03125 11.320312 27.6875 8.804688 C 25.441406 7.109375 22.960938 6.164062 20.414062 6.058594 C 25.074219 8.550781 28.148438 13.910156 27.894531 19.25 C 27.765625 21.953125 26.871094 24.738281 27.328125 27.335938 "/>
<path style=" stroke:none;fill-rule:nonzero;fill:rgb(0%,76.862746%,41.176471%);fill-opacity:1;" d="M 13.464844 6.320312 C 10.863281 7.273438 8.191406 9.105469 6.851562 11.914062 C 6.851562 11.914062 6.457031 17.132812 10.117188 19.429688 C 11.300781 20.171875 12.878906 20.179688 14.183594 19.691406 C 15.488281 19.207031 16.46875 17.832031 16.257812 16.371094 C 16.257812 16.371094 15.800781 17.710938 13.75 17.90625 C 12.566406 18.023438 10.011719 16.527344 9.921875 12.839844 C 9.832031 9.277344 13.464844 6.320312 13.464844 6.320312 "/>
<path style=" stroke:none;fill-rule:nonzero;fill:rgb(0%,76.862746%,41.176471%);fill-opacity:1;" d="M 30.425781 8.707031 C 29.050781 5.949219 26.953125 3.722656 24.445312 2.1875 C 20.875 0.0078125 16.347656 0.230469 12.921875 2.632812 C 10.613281 4.25 8.949219 6.316406 8.0625 8.710938 C 11.871094 5.046875 17.917969 3.773438 22.914062 5.667969 C 25.445312 6.625 27.8125 8.335938 30.425781 8.707031 "/>
</g>
</svg>
