<svg width="34" height="34" viewBox="0 0 34 34" fill="none" xmlns="http://www.w3.org/2000/svg">
<path d="M31.5607 0H2.42016C1.0849 0 0 1.10007 0 2.45051V31.5379C0 32.8884 1.0849 33.9884 2.42016 33.9884H31.5607C32.896 33.9884 33.9884 32.8884 33.9884 31.5379V2.45051C33.9884 1.10007 32.896 0 31.5607 0ZM10.2724 29.1329H5.23483V12.9126H10.28V29.1329H10.2724ZM7.75361 10.6973C6.13764 10.6973 4.83273 9.38475 4.83273 7.77637C4.83273 6.16799 6.13764 4.85549 7.75361 4.85549C9.36199 4.85549 10.6745 6.16799 10.6745 7.77637C10.6745 9.39234 9.36958 10.6973 7.75361 10.6973ZM29.1557 29.1329H24.1181V21.2428C24.1181 19.3613 24.0802 16.9411 21.5007 16.9411C18.8757 16.9411 18.4736 18.9895 18.4736 21.1062V29.1329H13.4361V12.9126H18.2688V15.1279H18.3371C19.0123 13.8533 20.6586 12.5105 23.1091 12.5105C28.2074 12.5105 29.1557 15.8714 29.1557 20.2413V29.1329Z" fill="white"/>
</svg>
