<svg width="33" height="34" viewBox="0 0 33 34" fill="none" xmlns="http://www.w3.org/2000/svg">
<path d="M16.1886 8.28001C11.5958 8.28001 7.89119 12.1707 7.89119 16.9942C7.89119 21.8177 11.5958 25.7084 16.1886 25.7084C20.7814 25.7084 24.486 21.8177 24.486 16.9942C24.486 12.1707 20.7814 8.28001 16.1886 8.28001ZM16.1886 22.6596C13.2206 22.6596 10.7942 20.1189 10.7942 16.9942C10.7942 13.8695 13.2134 11.3288 16.1886 11.3288C19.1638 11.3288 21.583 13.8695 21.583 16.9942C21.583 20.1189 19.1566 22.6596 16.1886 22.6596ZM26.7607 7.92356C26.7607 9.0536 25.8941 9.95611 24.8254 9.95611C23.7494 9.95611 22.89 9.04601 22.89 7.92356C22.89 6.8011 23.7566 5.891 24.8254 5.891C25.8941 5.891 26.7607 6.8011 26.7607 7.92356ZM32.2562 9.98645C32.1334 7.26373 31.5413 4.85197 29.6421 2.86492C27.75 0.877867 25.4536 0.255966 22.8612 0.119451C20.1892 -0.0398169 12.1807 -0.0398169 9.50878 0.119451C6.92352 0.248381 4.62711 0.870283 2.72789 2.85733C0.828656 4.84439 0.243722 7.25615 0.113737 9.97887C-0.0379124 12.785 -0.0379124 21.1958 0.113737 24.002C0.236501 26.7247 0.828656 29.1365 2.72789 31.1235C4.62711 33.1106 6.9163 33.7325 9.50878 33.869C12.1807 34.0283 20.1892 34.0283 22.8612 33.869C25.4536 33.7401 27.75 33.1182 29.6421 31.1235C31.5341 29.1365 32.1262 26.7247 32.2562 24.002C32.4079 21.1958 32.4079 12.7926 32.2562 9.98645ZM28.8044 27.0129C28.2411 28.4994 27.1507 29.6446 25.7281 30.2438C23.5977 31.1311 18.5428 30.9263 16.1886 30.9263C13.8344 30.9263 8.7722 31.1235 6.64911 30.2438C5.23371 29.6522 4.14328 28.507 3.57279 27.0129C2.72789 24.7756 2.92286 19.4667 2.92286 16.9942C2.92286 14.5218 2.73511 9.20528 3.57279 6.97554C4.13606 5.48904 5.22649 4.34383 6.64911 3.74468C8.77942 2.85733 13.8344 3.06211 16.1886 3.06211C18.5428 3.06211 23.605 2.86492 25.7281 3.74468C27.1435 4.33625 28.2339 5.48146 28.8044 6.97554C29.6493 9.21286 29.4543 14.5218 29.4543 16.9942C29.4543 19.4667 29.6493 24.7832 28.8044 27.0129Z" fill="white"/>
</svg>
