<?xml version="1.0" encoding="UTF-8" standalone="no"?>
<!DOCTYPE svg PUBLIC "-//W3C//DTD SVG 1.1//EN" "http://www.w3.org/Graphics/SVG/1.1/DTD/svg11.dtd"><svg width="100%"
    height="100%" viewBox="0 0 1366 1366" version="1.1" xmlns="http://www.w3.org/2000/svg"
    xmlns:xlink="http://www.w3.org/1999/xlink" xml:space="preserve" xmlns:serif="http://www.serif.com/"
    style="fill-rule:evenodd;clip-rule:evenodd;stroke-linecap:round;stroke-miterlimit:15;">
    <rect id="Solution---vert2" serif:id="Solution - vert2" x="0" y="0" width="1365.333" height="1365.333"
        style="fill:none;" />
    <clipPath id="_clip1">
        <rect id="Solution---vert21" serif:id="Solution - vert2" x="0" y="0" width="1365.333" height="1365.333" />
    </clipPath>
    <g clip-path="url(#_clip1)">
        <g>
            <path
                d="M1261.474,732.033C1261.474,867.642 1177.906,983.965 1058.892,1033.447M820.481,423.778C854.96,411.733 892.068,405.179 930.726,405.179C968.621,405.179 1005.022,411.477 1038.929,423.07M399.986,573.208C384.436,570.187 368.364,568.607 351.919,568.607C214.919,568.607 103.859,678.36 103.859,813.749C103.859,923.514 176.86,1016.43 277.501,1047.669M399.986,573.208C386.726,537.837 379.481,499.582 379.481,459.656C379.481,279.138 527.562,132.799 710.229,132.799C880.382,132.799 1020.523,259.773 1038.929,423.07M399.986,573.208C432.656,579.546 463.025,592.222 489.731,609.887M1038.929,423.07C1090.414,440.676 1136.134,470.497 1172.529,509.024"
                style="fill:none;fill-rule:nonzero;stroke:#8e8e8e;stroke-width:83.33px;" />
            <path
                d="M682.667,1232.534L682.667,885.249M682.667,1232.534L798.428,1116.772M682.667,1232.534L566.905,1116.772"
                style="fill:none;fill-rule:nonzero;stroke:#8e8e8e;stroke-width:83.33px;stroke-linejoin:round;stroke-miterlimit:4;" />
        </g>
    </g>
</svg>