<svg width="58" height="84" viewBox="0 0 58 84" fill="none" xmlns="http://www.w3.org/2000/svg">
<g clip-path="url(#clip0_15_96)">
<path d="M15.8281 74.5404C15.8297 75.5723 16.1362 76.5829 16.7113 77.4426L19.5272 81.6572C20.0083 82.3777 20.6607 82.9686 21.4266 83.3773C22.1924 83.7861 23.0478 84 23.9168 84H34.0849C34.9538 84 35.8092 83.7861 36.5751 83.3773C37.3409 82.9686 37.9934 82.3777 38.4744 81.6572L41.2904 77.4426C41.8652 76.5828 42.1724 75.5732 42.1736 74.5404L42.1802 68.2487H15.8198L15.8281 74.5404ZM0 28.8745C0 36.1538 2.71051 42.7949 7.1775 47.8693C9.89955 50.9618 14.1573 57.4224 15.7803 62.8725C15.7869 62.9151 15.7918 62.9578 15.7984 63.0004H42.2016C42.2082 62.9578 42.2131 62.9168 42.2197 62.8725C43.8427 57.4224 48.1005 50.9618 50.8225 47.8693C55.2895 42.7949 58 36.1538 58 28.8745C58 12.8968 44.9681 -0.0490778 28.9094 0.000139873C12.1009 0.0509982 0 13.6121 0 28.8745ZM29 15.7498C21.7319 15.7498 15.8182 21.6379 15.8182 28.8745C15.8182 30.3248 14.6384 31.4995 13.1818 31.4995C11.7252 31.4995 10.5455 30.3248 10.5455 28.8745C10.5455 18.7422 18.8236 10.4999 29 10.4999C30.4566 10.4999 31.6364 11.6746 31.6364 13.1249C31.6364 14.5751 30.4566 15.7498 29 15.7498Z" fill="white"/>
</g>
<defs>
<clipPath id="clip0_15_96">
<rect width="58" height="84" fill="white"/>
</clipPath>
</defs>
</svg>
