<svg width="74" height="84" viewBox="0 0 74 84" fill="none" xmlns="http://www.w3.org/2000/svg">
<g clip-path="url(#clip0_15_89)">
<path d="M0 76.125C0 80.4727 3.55134 84 7.92857 84H66.0714C70.4487 84 74 80.4727 74 76.125V31.5H0V76.125ZM52.8571 43.9688C52.8571 42.8859 53.7491 42 54.8393 42H61.4464C62.5366 42 63.4286 42.8859 63.4286 43.9688V50.5312C63.4286 51.6141 62.5366 52.5 61.4464 52.5H54.8393C53.7491 52.5 52.8571 51.6141 52.8571 50.5312V43.9688ZM52.8571 64.9688C52.8571 63.8859 53.7491 63 54.8393 63H61.4464C62.5366 63 63.4286 63.8859 63.4286 64.9688V71.5312C63.4286 72.6141 62.5366 73.5 61.4464 73.5H54.8393C53.7491 73.5 52.8571 72.6141 52.8571 71.5312V64.9688ZM31.7143 43.9688C31.7143 42.8859 32.6063 42 33.6964 42H40.3036C41.3937 42 42.2857 42.8859 42.2857 43.9688V50.5312C42.2857 51.6141 41.3937 52.5 40.3036 52.5H33.6964C32.6063 52.5 31.7143 51.6141 31.7143 50.5312V43.9688ZM31.7143 64.9688C31.7143 63.8859 32.6063 63 33.6964 63H40.3036C41.3937 63 42.2857 63.8859 42.2857 64.9688V71.5312C42.2857 72.6141 41.3937 73.5 40.3036 73.5H33.6964C32.6063 73.5 31.7143 72.6141 31.7143 71.5312V64.9688ZM10.5714 43.9688C10.5714 42.8859 11.4634 42 12.5536 42H19.1607C20.2509 42 21.1429 42.8859 21.1429 43.9688V50.5312C21.1429 51.6141 20.2509 52.5 19.1607 52.5H12.5536C11.4634 52.5 10.5714 51.6141 10.5714 50.5312V43.9688ZM10.5714 64.9688C10.5714 63.8859 11.4634 63 12.5536 63H19.1607C20.2509 63 21.1429 63.8859 21.1429 64.9688V71.5312C21.1429 72.6141 20.2509 73.5 19.1607 73.5H12.5536C11.4634 73.5 10.5714 72.6141 10.5714 71.5312V64.9688ZM66.0714 10.5H58.1429V2.625C58.1429 1.18125 56.9536 0 55.5 0H50.2143C48.7607 0 47.5714 1.18125 47.5714 2.625V10.5H26.4286V2.625C26.4286 1.18125 25.2393 0 23.7857 0H18.5C17.0464 0 15.8571 1.18125 15.8571 2.625V10.5H7.92857C3.55134 10.5 0 14.0273 0 18.375V26.25H74V18.375C74 14.0273 70.4487 10.5 66.0714 10.5Z" fill="white"/>
</g>
<defs>
<clipPath id="clip0_15_89">
<rect width="74" height="84" fill="white"/>
</clipPath>
</defs>
</svg>
