<svg width="84" height="84" viewBox="0 0 84 84" xmlns="http://www.w3.org/2000/svg">
    <g clip-path="url(#clip0_15_91)">
        <path
            d="M76.125 0C80.4743 0 84 3.5257 84 7.875V55.125C84 59.4743 80.4743 63 76.125 63H28.875C24.5257 63 21 59.4743 21 55.125V7.875C21 3.5257 24.5257 0 28.875 0H76.125ZM28.875 68.25C21.6379 68.25 15.75 62.3621 15.75 55.125V21H7.875C3.5257 21 0 24.5257 0 28.875V76.125C0 80.4743 3.5257 84 7.875 84H55.125C59.4743 84 63 80.4743 63 76.125V68.25H28.875Z"
            fill="white" />
    </g>
    <defs>
        <clipPath id="clip0_15_91">
            <rect width="84" height="84" fill="white" />
        </clipPath>
    </defs>
</svg>