<?xml version="1.0" encoding="UTF-8" standalone="no"?>
<!DOCTYPE svg PUBLIC "-//W3C//DTD SVG 1.1//EN" "http://www.w3.org/Graphics/SVG/1.1/DTD/svg11.dtd"><svg width="100%"
    height="100%" viewBox="0 0 1366 1366" version="1.1" xmlns="http://www.w3.org/2000/svg"
    xmlns:xlink="http://www.w3.org/1999/xlink" xml:space="preserve" xmlns:serif="http://www.serif.com/"
    style="fill-rule:evenodd;clip-rule:evenodd;stroke-linejoin:round;stroke-miterlimit:2;">
    <rect id="Vidéo---gris2" serif:id="Vidéo - gris2" x="0" y="0" width="1365.333" height="1365.333"
        style="fill:none;" />
    <g id="Vidéo---gris21" serif:id="Vidéo - gris2">
        <g>
            <path
                d="M763.111,133.333C775.487,133.333 787.357,138.25 796.109,147.002C804.861,155.753 809.777,167.623 809.777,180L809.777,413.884C809.777,426.261 804.861,438.131 796.109,446.882C787.357,455.634 775.487,460.551 763.111,460.551L180,460.551C167.623,460.551 155.753,455.634 147.002,446.882C138.25,438.131 133.333,426.261 133.333,413.884L133.333,180C133.333,167.623 138.25,155.753 147.002,147.002C155.753,138.25 167.623,133.333 180,133.333L763.111,133.333ZM216.667,377.217L726.444,377.217L726.444,216.667L216.667,216.667L216.667,377.217Z"
                style="fill:#8e8e8e;" />
            <path
                d="M1185.333,519.058C1197.71,519.058 1209.58,523.975 1218.332,532.726C1227.083,541.478 1232,553.348 1232,565.725L1232,799.609C1232,811.985 1227.083,823.855 1218.332,832.607C1209.58,841.359 1197.71,846.275 1185.333,846.275L449.881,846.275C437.505,846.275 425.635,841.359 416.883,832.607C408.131,823.855 403.215,811.985 403.215,799.609L403.215,565.725C403.215,553.348 408.131,541.478 416.883,532.726C425.635,523.975 437.505,519.058 449.881,519.058L1185.333,519.058ZM486.548,602.391L486.548,762.942L1148.667,762.942L1148.667,602.391L486.548,602.391Z"
                style="fill:#8e8e8e;" />
            <path
                d="M788.468,904.783C814.241,904.783 835.135,925.676 835.135,951.449L835.135,1185.333C835.135,1211.107 814.241,1232 788.468,1232L322.644,1232C296.871,1232 275.977,1211.107 275.977,1185.333L275.977,951.449C275.977,925.676 296.871,904.783 322.644,904.783L788.468,904.783ZM359.311,1148.667L751.801,1148.667L751.801,988.116L359.311,988.116L359.311,1148.667Z"
                style="fill:#8e8e8e;" />
        </g>
    </g>
</svg>