<?xml version="1.0" encoding="UTF-8" standalone="no"?>
<!DOCTYPE svg PUBLIC "-//W3C//DTD SVG 1.1//EN" "http://www.w3.org/Graphics/SVG/1.1/DTD/svg11.dtd"><svg width="100%"
    height="100%" viewBox="0 0 1366 1366" version="1.1" xmlns="http://www.w3.org/2000/svg"
    xmlns:xlink="http://www.w3.org/1999/xlink" xml:space="preserve" xmlns:serif="http://www.serif.com/"
    style="fill-rule:evenodd;clip-rule:evenodd;stroke-linecap:round;stroke-miterlimit:10;">
    <rect id="Carrousels---Gris" serif:id="Carrousels - Gris" x="0" y="0" width="1365.333" height="1365.333"
        style="fill:none;" />
    <g id="Carrousels---Gris1" serif:id="Carrousels - Gris">
        <g>
            <g>
                <g>
                    <path
                        d="M649.942,735.45C621.381,706.188 604.081,715.036 592.215,727.355C578.893,743.057 576.007,756.155 595.506,781.831C639.513,837.871 700.817,902.093 757.404,938.657L911.025,894.652C953.562,839.176 942.506,636.474 865.318,649.123C858.469,651.085 847.821,655.324 844.19,661.333C837.669,638.57 816.14,638.427 807.591,641.029C797.784,644.017 792.151,651.61 789.723,664.62C783.202,641.858 763.012,641.484 753.124,644.316C742.238,647.434 731.565,657.842 729.566,669.537L695.333,550.032C689.914,531.116 670.327,520.249 651.414,525.667C632.502,531.084 621.638,550.674 627.057,569.59L685.742,774.456L649.942,735.45Z"
                        style="fill:#8e8e8e;fill-rule:nonzero;" />
                    <path d="M492.559,471.417L457.728,570.643L562.718,564.631"
                        style="fill:none;stroke:#8e8e8e;stroke-width:38.89px;" />
                    <path d="M457.728,570.643C631.085,442.594 702.908,438.698 850.746,492.048"
                        style="fill:none;stroke:#8e8e8e;stroke-width:38.89px;stroke-miterlimit:1.5;" />
                </g>
            </g>
            <path
                d="M1056,50C1127.797,50 1186,108.203 1186,180L1186,1185.333C1186,1257.13 1127.797,1315.333 1056,1315.333L309.333,1315.333C237.536,1315.333 179.333,1257.13 179.333,1185.333L179.333,180C179.333,108.203 237.536,50 309.333,50L1056,50ZM1056,133.333L309.333,133.333C283.56,133.333 262.667,154.227 262.667,180L262.667,1185.333C262.667,1211.107 283.56,1232 309.333,1232L1056,1232C1081.773,1232 1102.667,1211.107 1102.667,1185.333L1102.667,180C1102.667,154.227 1081.773,133.333 1056,133.333Z"
                style="fill:#8e8e8e;" />
            <g>
                <circle cx="608.133" cy="1075.669" r="20.995" style="fill:#8e8e8e;" />
                <circle cx="682.667" cy="1075.669" r="33.592" style="fill:#8e8e8e;" />
                <circle cx="757.2" cy="1075.669" r="20.995" style="fill:#8e8e8e;" />
            </g>
        </g>
    </g>
</svg>