<?xml version="1.0" encoding="UTF-8" standalone="no"?><!DOCTYPE svg PUBLIC "-//W3C//DTD SVG 1.1//EN" "http://www.w3.org/Graphics/SVG/1.1/DTD/svg11.dtd"><svg width="100%" height="100%" viewBox="0 0 408 408" version="1.1" xmlns="http://www.w3.org/2000/svg" xmlns:xlink="http://www.w3.org/1999/xlink" xml:space="preserve" xmlns:serif="http://www.serif.com/" style="fill-rule:evenodd;clip-rule:evenodd;stroke-linejoin:round;stroke-miterlimit:2;"><g><path d="M78.592,196.365C79.898,231.69 91.559,271.318 120.33,298.635C120.33,298.635 182.024,323.965 224.298,288.604C237.927,277.202 244.263,258.097 243.505,240.339C242.739,222.578 229.953,205.272 211.411,202.062C211.411,202.062 225.829,212.899 220.154,238.561C216.885,253.349 188.715,278.466 143.651,265.052C100.101,252.092 78.592,196.365 78.592,196.365" style="fill:#00c469;fill-rule:nonzero;"/><path d="M174.321,0C135.496,5.791 100.248,22.496 71.77,46.884C31.251,81.587 16.145,137.417 31.759,188.44C42.264,222.772 60.755,251.126 86.255,271.318C56.862,210.648 65.283,132.315 107.908,79.139C129.484,52.237 159.549,30.219 174.321,0" style="fill:#00c469;fill-rule:nonzero;"/><path d="M159.889,320.709C193.874,330.382 235.148,331.529 270.006,312.597C270.006,312.597 313.152,261.721 292.598,210.575C285.971,194.081 269.765,182.148 252.651,177.383C235.529,172.622 215.13,179.443 206.347,196.09C206.347,196.09 221.105,185.719 243.744,199.05C256.795,206.733 271.964,241.296 245.292,280.028C219.511,317.462 159.889,320.709 159.889,320.709" style="fill:#00c469;fill-rule:nonzero;"/><path d="M2.802,168.942C-3.431,206.139 0.92,243.31 14.018,276.879C34.584,329.577 85.658,363.083 142.205,362.849C176.391,362.705 207.525,353.875 233.506,336.575C166.752,345.797 94.888,313.578 57.511,256.587C38.602,227.742 26.965,192.337 2.802,168.942" style="fill:#00c469;fill-rule:nonzero;"/><path d="M303.213,281.778C322.911,252.431 336.757,213.516 329.532,174.496C329.532,174.496 294.5,117.722 239.527,121.474C221.801,122.681 205.452,134.413 195.633,149.225C185.814,164.044 185.994,185.563 199.109,199.068C199.109,199.068 193.808,181.818 213.476,164.395C224.812,154.354 262.357,150.6 290.934,187.951C318.553,224.044 303.213,281.778 303.213,281.778" style="fill:#00c469;fill-rule:nonzero;"/><path d="M110.4,384.348C145.21,402.49 183.54,409.705 220.908,406.723C274.08,402.473 319.1,366.189 336.445,315.728C348.116,281.777 349.817,247.963 341.047,216.634C329.183,283.001 276.349,341.423 210.624,359.375C177.361,368.452 140.104,368.586 110.4,384.348" style="fill:#00c469;fill-rule:nonzero;"/><path d="M310.496,133.376C288.686,105.567 255.971,80.367 216.642,75.184C216.642,75.184 151.849,90.969 138.428,144.436C134.096,161.676 140.196,180.858 151.244,194.777C162.297,208.7 182.81,215.176 199.697,206.871C199.697,206.871 181.664,206.587 171.176,182.486C165.134,168.597 173.168,131.714 217.504,116.066C260.352,100.94 310.496,133.376 310.496,133.376" style="fill:#00c469;fill-rule:nonzero;"/><path d="M348.417,348.532C376.42,321.017 395.129,286.776 403.838,250.297C416.231,198.395 395.647,144.343 353.039,112.248C324.368,90.649 292.752,78.585 260.261,77.248C319.682,109.045 358.895,177.367 355.649,245.453C353.998,279.908 342.612,315.397 348.417,348.532" style="fill:#00c469;fill-rule:nonzero;"/><path d="M171.671,80.587C138.495,92.748 104.429,116.089 87.351,151.906C87.351,151.906 82.335,218.436 129.013,247.729C144.066,257.175 164.185,257.302 180.832,251.089C197.478,244.874 209.978,227.357 207.301,208.723C207.301,208.723 201.455,225.792 175.307,228.323C160.238,229.784 127.656,210.739 126.48,163.718C125.344,118.273 171.671,80.587 171.671,80.587" style="fill:#00c469;fill-rule:nonzero;"/><path d="M387.923,110.993C370.417,75.842 343.651,47.465 311.664,27.905C266.156,0.076 208.412,2.955 164.731,33.579C135.341,54.182 114.103,80.539 102.79,111.043C151.38,64.326 228.447,48.13 292.17,72.257C324.411,84.475 354.633,106.278 387.923,110.993" style="fill:#00c469;fill-rule:nonzero;"/></g></svg>